<svg t="1716015621419" class="icon"
     id="good"
     width="256"
     height="256"
     viewBox="0 0 1024 1024"
     version="1.1" xmlns="http://www.w3.org/2000/svg"
     p-id="1646">
    <path d="M619.22807 415.348772a13340.559719 13340.559719 0 0 1 99.759158-350.944561C725.333333-11.22807 613.052632-24.701754 559.656421 72.807298c-94.616702 143.517193-128.637754 203.331368-197.847579 320.341334a44.889825 44.889825 0 0 0-27.71986-6.063158A2928.05614 2928.05614 0 0 0 43.52 433.529263a44.912281 44.912281 0 0 0-35.206737 49.857123l58.291649 438.433684a44.894316 44.894316 0 0 0 39.001825 38.642526c78.533614 9.728 160.157193 20.569825 249.541614 33.158737a44.948211 44.948211 0 0 0 50.75986-38.07214c146.804772 21.005474 293.699368 43.528982 440.441263 66.196211a10695.859649 10695.859649 0 0 1 153.402386-423.82372c5.569123-52.268912 11.138246-104.533333 16.716351-156.806737-130.905825-18.387088-263.855158-26.884491-397.240141-25.766175z m-323.072 66.613895l18.041263 415.254456a15042.209684 15042.209684 0 0 0-163.121403-21.593825L102.87607 513.077895l193.28-31.115228z" fill="#000000" p-id="1647"></path>
</svg>